<svg id="bg-stars-right" xmlns="http://www.w3.org/2000/svg" xmlns:xlink="http://www.w3.org/1999/xlink" width="378.623" height="354.172" viewBox="0 0 378.623 354.172">
  <defs>
    <clipPath id="clip-path">
      <rect id="Rectangle_5734" data-name="Rectangle 5734" width="378.623" height="354.172" fill="#7c4d46"/>
    </clipPath>
  </defs>
  <g id="Group_12061" data-name="Group 12061" opacity="0.05">
    <g id="Group_12059" data-name="Group 12059" clip-path="url(#clip-path)">
      <path id="Path_77576" data-name="Path 77576" d="M151.613,265.122c7.154-77.27,49.091-118.494,126.053-125.487-33.172-7.138-65.058-13.41-89.4-37.85-24.278-24.367-30.615-56.2-37.753-89.231C143.432,89.5,102.2,131.422,25,138.438c32.549,7.389,64.224,13.555,88.438,37.607,24.537,24.375,30.963,56.229,38.174,89.077" transform="translate(-25.002 89.053)" fill="#7c4d46"/>
      <path id="Path_77577" data-name="Path 77577" d="M76.177,164.512c4.305-46.493,29.539-71.289,75.837-75.5-19.957-4.3-39.145-8.069-53.785-22.773C83.623,51.585,79.811,32.43,75.514,12.554,71.249,58.853,46.444,84.07,0,88.294c19.585,4.443,38.643,8.158,53.21,22.627,14.761,14.664,18.63,33.828,22.967,53.59" transform="translate(302.985 89.046)" fill="#7c4d46"/>
      <path id="Path_77578" data-name="Path 77578" d="M74.412,112.432c3.18-34.394,21.85-52.749,56.107-55.856C115.758,53.4,101.563,50.6,90.727,39.726,79.923,28.874,77.1,14.7,73.927,0,70.77,34.256,52.416,52.918,18.054,56.041c14.486,3.286,28.584,6.029,39.363,16.736C68.343,83.63,71.2,97.808,74.412,112.432" transform="translate(178.374 -0.004)" fill="#7c4d46"/>
    </g>
  </g>
</svg>
