<svg id="bg-stars-sm-menu" xmlns="http://www.w3.org/2000/svg" xmlns:xlink="http://www.w3.org/1999/xlink" width="407.5" height="317.198" viewBox="0 0 407.5 317.198">
  <defs>
    <clipPath id="clip-path">
      <rect id="Rectangle_5734" data-name="Rectangle 5734" width="407.5" height="317.198" fill="#7c4d46"/>
    </clipPath>
  </defs>
  <g id="Group_12070" data-name="Group 12070" transform="translate(0 0)" opacity="0.05">
    <g id="Group_12059" data-name="Group 12059" transform="translate(0 0)" clip-path="url(#clip-path)">
      <path id="Path_77576" data-name="Path 77576" d="M137.9,238.755C131.488,169.552,93.93,132.631,25,126.369c29.709-6.393,58.266-12.01,80.068-33.9,21.744-21.823,27.419-50.33,33.812-79.916,6.342,68.913,43.27,106.458,112.408,112.741-29.151,6.617-57.52,12.14-79.205,33.681-21.976,21.831-27.731,50.359-34.188,79.778" transform="translate(156.211 78.446)" fill="#7c4d46"/>
      <path id="Path_77577" data-name="Path 77577" d="M67.92,148.648C64.064,107.009,41.465,84.8,0,81.032c17.873-3.849,35.058-7.226,48.17-20.4,13.083-13.126,16.5-30.282,20.345-48.083,3.82,41.465,26.035,64.05,67.63,67.833-17.54,3.979-34.609,7.306-47.655,20.265-13.22,13.133-16.685,30.3-20.57,48" transform="translate(0 78.439)" fill="#7c4d46"/>
      <path id="Path_77578" data-name="Path 77578" d="M68.3,100.694c-2.848-30.8-19.569-47.242-50.25-50.025,13.22-2.848,25.933-5.349,35.638-15.09C63.368,25.86,65.9,13.168,68.739,0,71.565,30.679,88,47.393,118.778,50.191c-12.974,2.943-25.6,5.4-35.254,14.989C73.74,74.9,71.181,87.6,68.3,100.694" transform="translate(112.8 -0.003)" fill="#7c4d46"/>
    </g>
  </g>
</svg>
