<svg id="bg-stars-left" xmlns="http://www.w3.org/2000/svg" xmlns:xlink="http://www.w3.org/1999/xlink" width="379" height="354.172" viewBox="0 0 379 354.172">
  <defs>
    <clipPath id="clip-path">
      <rect id="Rectangle_5734" data-name="Rectangle 5734" width="379" height="354.172" transform="translate(76)" fill="#7c4d46"/>
    </clipPath>
  </defs>
  <g id="Group_12060" data-name="Group 12060" transform="translate(-76 0)" opacity="0.05">
    <g id="Group_12059" data-name="Group 12059" transform="translate(0 0)" clip-path="url(#clip-path)">
      <path id="Path_77576" data-name="Path 77576" d="M151.055,265.122C143.9,187.853,101.964,146.628,25,139.636c33.172-7.138,65.058-13.41,89.4-37.85,24.278-24.367,30.615-56.2,37.753-89.231,7.081,76.946,48.314,118.867,125.511,125.883-32.549,7.389-64.224,13.555-88.438,37.607-24.537,24.375-30.963,56.229-38.174,89.077" transform="translate(177.334 89.053)" fill="#7c4d46"/>
      <path id="Path_77577" data-name="Path 77577" d="M75.837,164.512C71.532,118.019,46.3,93.223,0,89.015c19.957-4.3,39.145-8.069,53.785-22.773C68.392,51.585,72.2,32.43,76.5,12.554c4.265,46.3,29.069,71.516,75.514,75.74-19.585,4.443-38.643,8.158-53.21,22.627-14.761,14.664-18.63,33.828-22.967,53.59" transform="translate(0 89.046)" fill="#7c4d46"/>
      <path id="Path_77578" data-name="Path 77578" d="M74.161,112.432c-3.18-34.394-21.85-52.749-56.107-55.856C32.815,53.4,47.01,50.6,57.846,39.726,68.65,28.874,71.474,14.7,74.647,0,77.8,34.256,96.157,52.918,130.519,56.041c-14.486,3.286-28.584,6.029-39.363,16.736C80.231,83.63,77.374,97.808,74.161,112.432" transform="translate(128.053 -0.004)" fill="#7c4d46"/>
    </g>
  </g>
</svg>
