<svg xmlns="http://www.w3.org/2000/svg" width="43.552" height="43.552" viewBox="0 0 43.552 43.552">
  <g id="Group_12095" data-name="Group 12095" transform="translate(-235.371 -5767.356)">
    <g id="Ellipse_302" data-name="Ellipse 302" transform="translate(237.371 5769.356)" fill="#fff" stroke="#c19b46" stroke-width="2">
      <ellipse cx="19.776" cy="19.776" rx="19.776" ry="19.776" stroke="none"/>
      <ellipse cx="19.776" cy="19.776" rx="20.776" ry="20.776" fill="none"/>
    </g>
    <g id="Group_9850" data-name="Group 9850" transform="translate(243.881 5780.569)">
      <g id="Group_9849" data-name="Group 9849" transform="translate(0 0)">
        <path id="Path_51142" data-name="Path 51142" d="M466.065,686.8c.585-.84,1.2-1.625,1.687-2.479.14-.243-.066-.684-.114-1.046-.368.059-.625.083-.875.144a.374.374,0,0,1-.519-.3,3.321,3.321,0,0,1-.081-.811c.01-.31.259-.325.5-.324q1.554,0,3.109,0c.218,0,.447-.024.465.292a.508.508,0,0,1-.379.6c-.38.094-.769.157-1.149.233.016.456.206.617.66.612,2.3-.023,4.6-.011,6.9-.011h.557c-.347-.909-.673-1.765-1.005-2.637-.475,0-.932-.005-1.387,0-.343.006-.569-.136-.591-.488A.519.519,0,0,1,474.4,680c.593-.023,1.189-.014,1.782,0,.391.008.525.308.643.618q1.009,2.642,2.023,5.284c.053.139.113.276.181.442a5.323,5.323,0,0,1,4.476.9,5.109,5.109,0,0,1,2.022,3.163,5.265,5.265,0,0,1-9.756,3.616,5.1,5.1,0,0,1-.436-4.107,5.2,5.2,0,0,1,2.646-3.145l-.6-1.537c-.161.179-.29.315-.412.457-1.706,1.99-3.405,3.985-5.129,5.959a1.168,1.168,0,0,1-.73.342A17.973,17.973,0,0,1,469.2,692c-.312-.009-.437.073-.5.409a5.32,5.32,0,0,1-4.714,4.307,5.231,5.231,0,0,1-5.431-3.545,4.985,4.985,0,0,1,1.269-5.426A5.127,5.127,0,0,1,465.3,686.5c.13.041.255.1.382.149Zm12.336,1.039a4.069,4.069,0,0,0-1.85,5.283,4.17,4.17,0,0,0,5.547,2.132,4.112,4.112,0,0,0,2.164-5.342c-.809-1.931-3.114-3.107-4.8-2.423.059.168.115.339.179.507q.608,1.6,1.218,3.195c.123.326.088.628-.266.761a.546.546,0,0,1-.763-.368c-.049-.128-.1-.256-.144-.384Zm-10.733,4.167h-.535c-1.142,0-2.284.014-3.425-.014a.782.782,0,0,1-.6-.288,1.078,1.078,0,0,1,.1-.706,2.584,2.584,0,0,1,.355-.528l1.868-2.684a4.006,4.006,0,0,0-4.614.516,4.138,4.138,0,0,0-1.032,4.947,4.157,4.157,0,0,0,7.889-1.243Zm3.865-1.624,4.754-5.574h-6.96Zm-4.547-2.937a5.515,5.515,0,0,1,1.78,3.219c.015.089.139.225.217.228.5.021,1,.011,1.564.011l-2.159-5.5Zm.695,3.439a4.165,4.165,0,0,0-1.343-2.527l-1.729,2.527Z" transform="translate(-458.237 -679.99)" fill="#c19b46"/>
      </g>
    </g>
  </g>
</svg>
