<svg xmlns="http://www.w3.org/2000/svg" width="43.552" height="43.552" viewBox="0 0 43.552 43.552">
  <g id="Ellipse_303" data-name="Ellipse 303" transform="translate(2 2)" fill="#fff" stroke="#c19b46" stroke-width="2">
    <ellipse cx="19.776" cy="19.776" rx="19.776" ry="19.776" stroke="none"/>
    <ellipse cx="19.776" cy="19.776" rx="20.776" ry="20.776" fill="none"/>
  </g>
  <path id="Path_51147" data-name="Path 51147" d="M759.006,685.078h-1.252l-.5-1.5h1.75a.75.75,0,0,0,0-1.5h-2.251L755.729,679a2.231,2.231,0,0,0-1.976-1.424h-9A2.23,2.23,0,0,0,742.776,679l-1.025,3.077H739.5a.75.75,0,0,0,0,1.5h1.75l-.5,1.5H739.5a.751.751,0,0,0-.75.75v4.5a.751.751,0,0,0,.75.75h.75v3a1.5,1.5,0,0,0,1.5,1.5h1.5a1.5,1.5,0,0,0,1.5-1.5v-3h9v3a1.5,1.5,0,0,0,1.5,1.5h1.5a1.5,1.5,0,0,0,1.5-1.5v-3h.751a.751.751,0,0,0,.75-.75v-4.5A.752.752,0,0,0,759.006,685.078Zm-14.806-5.6a.769.769,0,0,1,.551-.4h3v.75a.749.749,0,0,0,.75.751H750a.749.749,0,0,0,.75-.751v-.75h3a.77.77,0,0,1,.551.4l1.868,5.6H742.33Zm-.95,10.1a1.5,1.5,0,1,1,1.5-1.5A1.5,1.5,0,0,1,743.25,689.58Zm9,0h-6v-1.5h6Zm3,0a1.5,1.5,0,1,1,1.5-1.5A1.5,1.5,0,0,1,755.254,689.58Z" transform="translate(-727.561 -665.39)" fill="#c19b46"/>
</svg>
