<svg xmlns="http://www.w3.org/2000/svg" width="35" height="35" viewBox="0 0 35 35">
  <g id="Group_12091" data-name="Group 12091" transform="translate(-635.573 -218.124)">
    <g id="Path_77602" data-name="Path 77602" transform="translate(635.573 218.124)" fill="#fff">
      <path d="M 17.5 34 C 13.87722969055176 34 10.49079990386963 32.847900390625 7.434780120849609 30.57571983337402 C 5.517499923706055 29.1536808013916 3.911849975585938 27.23258018493652 2.790460109710693 25.0194091796875 C 1.61913001537323 22.70766067504883 1 20.10750007629395 1 17.5 C 1 13.09269046783447 2.716300010681152 8.949179649353027 5.83273983001709 5.83273983001709 C 8.949179649353027 2.716300010681152 13.09269046783447 1 17.5 1 C 21.90731048583984 1 26.05081939697266 2.716300010681152 29.16725921630859 5.83273983001709 C 32.28369903564453 8.949179649353027 34 13.09269046783447 34 17.5 C 34 19.47616004943848 33.65444183349609 21.40496063232422 32.97291946411133 23.23280906677246 C 32.31182098388672 25.00588035583496 31.35166931152344 26.64163017272949 30.119140625 28.09458923339844 C 27.62993049621582 31.02898979187012 24.13533973693848 33.0435791015625 20.27909088134766 33.76726913452148 C 19.51584053039551 33.91323852539062 18.47818946838379 34 17.5 34 Z" stroke="none"/>
      <path d="M 17.5 2 C 13.35980033874512 2 9.467409133911133 3.612279891967773 6.539850234985352 6.539850234985352 C 3.612279891967773 9.467409133911133 2 13.35980033874512 2 17.5 C 2 19.95121002197266 2.581798553466797 22.39509010314941 3.682489395141602 24.56742095947266 C 4.73406982421875 26.64282989501953 6.237270355224609 28.44248962402344 8.031440734863281 29.77322959899902 C 10.91119956970215 31.91436004638672 14.09687995910645 33 17.5 33 C 18.41884994506836 33 19.38626861572266 32.91989135742188 20.08784103393555 32.78570938110352 L 20.09465026855469 32.78442001342773 C 23.72605895996094 32.10292816162109 27.01532936096191 30.20764923095703 29.35655975341797 27.44770050048828 C 30.51395034790039 26.08332061767578 31.41542053222656 24.54767990112305 32.03593063354492 22.88344955444336 C 32.67564010620117 21.16773986816406 33 19.35647964477539 33 17.5 C 33 13.35980033874512 31.38772010803223 9.467409133911133 28.46014976501465 6.539850234985352 C 25.53258895874023 3.612279891967773 21.64019966125488 2 17.5 2 M 17.5 0 C 27.16497993469238 0 35 7.835020065307617 35 17.5 C 35 26.05350875854492 28.8634204864502 33.17374038696289 20.46353912353516 34.7501106262207 C 19.69874954223633 34.89638137817383 18.61146926879883 35 17.5 35 C 13.59535026550293 35 9.989370346069336 33.72119903564453 6.838119506835938 31.37821006774902 C 2.783119201660156 28.37062072753906 0 23.26033020019531 0 17.5 C 0 7.835020065307617 7.835020065307617 0 17.5 0 Z" stroke="none" fill="#c19b46"/>
    </g>
    <text id="plus" transform="translate(647.573 239.124)" fill="#c19b46" font-size="11" font-family="FontAwesome5Free-Solid, 'Font Awesome \35  Free'"><tspan x="0" y="0">plus</tspan></text>
  </g>
</svg>
