<svg id="icon-map-parks" xmlns="http://www.w3.org/2000/svg" xmlns:xlink="http://www.w3.org/1999/xlink" width="47.821" height="47.821" viewBox="0 0 47.821 47.821">
  <defs>
    <clipPath id="clip-path">
      <rect id="Rectangle_5708" data-name="Rectangle 5708" width="47.821" height="47.821" fill="#bb855d"/>
    </clipPath>
  </defs>
  <g id="Group_11910" data-name="Group 11910" transform="translate(0 0)">
    <g id="Group_11824" data-name="Group 11824" transform="translate(0 0)" clip-path="url(#clip-path)">
      <g id="Group_11915" data-name="Group 11915" transform="translate(9.22 7.583)">
        <path id="Path_77463" data-name="Path 77463" d="M15.559,39.2a.681.681,0,0,1-.681-.681V20.78a.681.681,0,0,1,1.363,0V38.523a.681.681,0,0,1-.681.681" transform="translate(-8.455 -6.551)" fill="#fff"/>
        <path id="Path_77464" data-name="Path 77464" d="M29.536,39.2a.681.681,0,0,1-.682-.681V20.78a.681.681,0,0,1,1.363,0V38.523a.68.68,0,0,1-.68.681" transform="translate(-7.736 -6.551)" fill="#fff"/>
        <path id="Path_77465" data-name="Path 77465" d="M26.054,23.967h-.018a.681.681,0,0,1,.011-1.363h.009a3.45,3.45,0,0,0,3.037-2.015.682.682,0,0,1,1.241.567,4.812,4.812,0,0,1-4.279,2.81" transform="translate(-7.915 -6.546)" fill="#fff"/>
        <path id="Path_77466" data-name="Path 77466" d="M33.184,23.923a4.812,4.812,0,0,1-4.279-2.81.682.682,0,0,1,1.241-.567,3.453,3.453,0,0,0,3.036,2.015h.006a.681.681,0,0,1,.015,1.363Z" transform="translate(-7.737 -6.548)" fill="#fff"/>
        <path id="Path_77467" data-name="Path 77467" d="M25.079,28.5h-.023a.681.681,0,0,1,.012-1.363h.007a4.573,4.573,0,0,0,4.069-2.693.682.682,0,0,1,1.241.567A5.964,5.964,0,0,1,25.079,28.5" transform="translate(-7.966 -6.348)" fill="#fff"/>
        <path id="Path_77468" data-name="Path 77468" d="M34.209,28.445a5.964,5.964,0,0,1-5.305-3.49.682.682,0,0,1,1.241-.566,4.621,4.621,0,0,0,4.069,2.693h.005a.681.681,0,0,1,.014,1.363Z" transform="translate(-7.737 -6.35)" fill="#fff"/>
        <path id="Path_77469" data-name="Path 77469" d="M24.185,33.165h-.026a.681.681,0,0,1,.011-1.362h.008a5.673,5.673,0,0,0,5.013-3.313.682.682,0,1,1,1.241.566,7.025,7.025,0,0,1-6.246,4.109" transform="translate(-8.012 -6.139)" fill="#fff"/>
        <path id="Path_77470" data-name="Path 77470" d="M35.149,33.1A7.024,7.024,0,0,1,28.9,28.988a.682.682,0,0,1,1.241-.566,5.692,5.692,0,0,0,5.013,3.314.708.708,0,0,1,.689.673.681.681,0,0,1-.67.69Z" transform="translate(-7.736 -6.143)" fill="#fff"/>
        <path id="Path_77471" data-name="Path 77471" d="M15.465,26.64a.729.729,0,0,1-.157-.017A3.5,3.5,0,0,1,12.479,23.6a.681.681,0,0,1,1.359-.09A2.1,2.1,0,0,0,15.62,25.3a.681.681,0,0,1-.155,1.345" transform="translate(-8.578 -6.407)" fill="#fff"/>
        <path id="Path_77472" data-name="Path 77472" d="M15.766,28.8a.681.681,0,0,1-.106-1.354c.085-.014,2.085-.359,2.141-2.033a.681.681,0,0,1,1.362.045c-.074,2.248-2.186,3.164-3.292,3.334a.694.694,0,0,1-.1.008" transform="translate(-8.444 -6.311)" fill="#fff"/>
        <path id="Path_77473" data-name="Path 77473" d="M18.821,32.1a4.255,4.255,0,0,1-2.947-1.16,4.255,4.255,0,0,1-2.947,1.16,4.052,4.052,0,0,1-4.157-3.929,3.8,3.8,0,0,1,.974-2.521,3.732,3.732,0,0,1-.4-1.682,3.94,3.94,0,0,1,2.878-3.736,3.693,3.693,0,0,1,3.765-3.357,3.688,3.688,0,0,1,3.769,3.433,3.919,3.919,0,0,1,2.651,3.66,3.731,3.731,0,0,1-.4,1.682,3.8,3.8,0,0,1,.974,2.521A4.053,4.053,0,0,1,18.821,32.1m-2.947-2.894a.683.683,0,0,1,.567.3,2.839,2.839,0,0,0,2.38,1.228,2.692,2.692,0,0,0,2.8-2.567,2.45,2.45,0,0,0-.911-1.888.683.683,0,0,1-.117-.917,2.4,2.4,0,0,0,.453-1.4A2.611,2.611,0,0,0,18.9,21.476a.681.681,0,0,1-.529-.758,2.162,2.162,0,0,0,.021-.274,2.316,2.316,0,0,0-2.409-2.206,2.317,2.317,0,0,0-2.409,2.206,2.151,2.151,0,0,0,.017.247.683.683,0,0,1-.571.753,2.629,2.629,0,0,0-2.316,2.524,2.4,2.4,0,0,0,.453,1.4.683.683,0,0,1-.117.917,2.45,2.45,0,0,0-.911,1.888,2.691,2.691,0,0,0,2.795,2.567,2.839,2.839,0,0,0,2.38-1.228.683.683,0,0,1,.567-.3" transform="translate(-8.769 -6.716)" fill="#fff"/>
        <path id="Path_77474" data-name="Path 77474" d="M24.286,16.543a3.064,3.064,0,1,1,3.065-3.064,3.068,3.068,0,0,1-3.065,3.064m0-4.766a1.7,1.7,0,1,0,1.7,1.7,1.7,1.7,0,0,0-1.7-1.7" transform="translate(-8.128 -7.048)" fill="#fff"/>
        <path id="Path_77475" data-name="Path 77475" d="M24.169,10.043a.681.681,0,0,1-.681-.681V7.894a.681.681,0,1,1,1.363,0V9.362a.681.681,0,0,1-.681.681" transform="translate(-8.012 -7.213)" fill="#fff"/>
        <path id="Path_77476" data-name="Path 77476" d="M24.169,19.545a.681.681,0,0,1-.681-.681V17.4a.681.681,0,1,1,1.363,0v1.468a.681.681,0,0,1-.681.681" transform="translate(-8.012 -6.725)" fill="#fff"/>
        <path id="Path_77477" data-name="Path 77477" d="M29.69,14.025H28.222a.681.681,0,0,1,0-1.363H29.69a.681.681,0,1,1,0,1.363" transform="translate(-7.804 -6.933)" fill="#fff"/>
        <path id="Path_77478" data-name="Path 77478" d="M20.188,14.025H18.72a.681.681,0,1,1,0-1.363h1.468a.681.681,0,1,1,0,1.363" transform="translate(-8.292 -6.933)" fill="#fff"/>
        <path id="Path_77479" data-name="Path 77479" d="M27.035,11.209a.681.681,0,0,1-.482-1.163l1.038-1.038a.681.681,0,0,1,.963.963L27.517,11.01a.676.676,0,0,1-.482.2" transform="translate(-7.865 -7.131)" fill="#fff"/>
        <path id="Path_77480" data-name="Path 77480" d="M20.316,17.928a.681.681,0,0,1-.482-1.163l1.038-1.038a.681.681,0,0,1,.963.963L20.8,17.729a.676.676,0,0,1-.482.2" transform="translate(-8.21 -6.786)" fill="#fff"/>
        <path id="Path_77481" data-name="Path 77481" d="M28.073,17.928a.676.676,0,0,1-.482-.2l-1.038-1.038a.681.681,0,1,1,.963-.963l1.038,1.038a.681.681,0,0,1-.482,1.163" transform="translate(-7.864 -6.786)" fill="#fff"/>
        <path id="Path_77482" data-name="Path 77482" d="M21.354,11.209a.676.676,0,0,1-.482-.2L19.835,9.972a.681.681,0,1,1,.963-.963l1.038,1.038a.681.681,0,0,1-.482,1.163" transform="translate(-8.21 -7.131)" fill="#fff"/>
      </g>
    </g>
  </g>
</svg>
