<svg id="icon-map-restraurants" xmlns="http://www.w3.org/2000/svg" width="18.58" height="33.401" viewBox="0 0 18.58 33.401">
  <g id="Group_12048" data-name="Group 12048">
    <g id="Group_11906" data-name="Group 11906" transform="translate(0 0)">
      <path id="Path_77434" data-name="Path 77434" d="M31.858,9.967a2.626,2.626,0,0,0-.715-2.081,1.83,1.83,0,0,0-1.227-.466c-.043,0-.08,0-.107,0A2.651,2.651,0,0,0,27.6,9.639L24.882,22.46a6.452,6.452,0,0,0-.069,2.318,2.978,2.978,0,0,0,2.176,2.062c.023.005.047.01.07.013a.787.787,0,0,1,.517.224.576.576,0,0,1,.069.381.688.688,0,0,0-.024.168v9.092l.04,2.02a2.292,2.292,0,0,0,.845,1.6,2.008,2.008,0,0,0,1.355.38,1.876,1.876,0,0,0,1.406-.585,2.848,2.848,0,0,0,.592-1.957ZM30.471,39.406a.774.774,0,0,1-.628.232.614.614,0,0,0-.078.005v0a.534.534,0,0,1-.085.007,1,1,0,0,1-.529-.172,1.238,1.238,0,0,1-.417-.83l0-.047L28.7,36.709V27.715A1.561,1.561,0,0,0,27.266,25.8c-.333-.106-1.253-.472-1.406-1.26a5.446,5.446,0,0,1,.075-1.856L28.648,9.871s.309-1.327,1.249-1.376a.747.747,0,0,1,.542.2,1.807,1.807,0,0,1,.345,1.259V38.182a1.873,1.873,0,0,1-.312,1.224" transform="translate(-13.284 -7.319)" fill="#fff"/>
      <path id="Path_77435" data-name="Path 77435" d="M22.823,7.327a.541.541,0,0,0-.542.533l-.069,8.355a3.678,3.678,0,0,1-.919,3.053c-1.631,1.062-1.528,2.257-1.492,2.487l.074,16.59a1.273,1.273,0,0,1-.337.953,1.341,1.341,0,0,1-.937.277c-.55-.037-.9-.545-.883-1.324V21.78a2.942,2.942,0,0,0-1.181-2.254,3.123,3.123,0,0,1-1.244-2.687.559.559,0,0,0,.017-.142L15.242,8a.537.537,0,0,0-.92-.373.533.533,0,0,0-.155.381l.068,8.626a4.2,4.2,0,0,0,1.587,3.7c.048.038.869.673.821,1.388V38.224a2.183,2.183,0,0,0,1.887,2.425,2.436,2.436,0,0,0,1.713-.541,2.292,2.292,0,0,0,.705-1.756L20.88,21.718a.553.553,0,0,0-.018-.138c-.061-.2.1-.822,1.008-1.4.093-.067,1.559-1.176,1.418-3.962l.068-8.348a.539.539,0,0,0-.533-.542" transform="translate(-14.167 -7.327)" fill="#fff"/>
      <path id="Path_77436" data-name="Path 77436" d="M17.211,7.359a.538.538,0,0,0-.537.537v8.733a.537.537,0,0,0,1.075,0V7.9a.538.538,0,0,0-.537-.537" transform="translate(-13.958 -7.324)" fill="#fff"/>
      <path id="Path_77437" data-name="Path 77437" d="M19.686,7.359a.538.538,0,0,0-.537.537v8.733a.537.537,0,0,0,1.075,0V7.9a.538.538,0,0,0-.537-.537" transform="translate(-13.751 -7.324)" fill="#fff"/>
    </g>
  </g>
</svg>
