<svg id="icon-map-shopping" xmlns="http://www.w3.org/2000/svg" width="29.914" height="31.386" viewBox="0 0 29.914 31.386">
  <g id="Group_11914" data-name="Group 11914">
    <g id="Group_11907" data-name="Group 11907" transform="translate(0 0)">
      <path id="Path_77441" data-name="Path 77441" d="M35.874,36.892H17.058a.567.567,0,0,1-.566-.612l1.351-17.191a.569.569,0,0,1,.566-.523H34.748a.568.568,0,0,1,.566.531l1.127,17.191a.567.567,0,0,1-.567.6m-18.2-1.135h17.6L34.216,19.7H18.934Z" transform="translate(-8.435 -5.506)" fill="#fff"/>
      <path id="Path_77442" data-name="Path 77442" d="M9.762,34.911a.569.569,0,0,1-.565-.622l2.04-21.427a.566.566,0,0,1,.564-.513l15.6-.015a.568.568,0,0,1,.564.5l.693,6.237a.566.566,0,0,1-.5.626.574.574,0,0,1-.627-.5L26.9,13.468l-14.578.015L10.386,33.766l6.989-.107a.568.568,0,0,1,.018,1.136l-7.622.116Z" transform="translate(-9.194 -6.155)" fill="#fff"/>
      <path id="Path_77443" data-name="Path 77443" d="M25.86,28.068c-2.54,0-4.531-2.958-4.531-6.734a.567.567,0,0,1,1.135,0c0,3.035,1.556,5.6,3.4,5.6s3.4-2.564,3.4-5.6a.567.567,0,0,1,1.135,0c0,3.776-1.991,6.734-4.531,6.734" transform="translate(-7.931 -5.277)" fill="#fff"/>
      <path id="Path_77444" data-name="Path 77444" d="M23.185,14.038a.567.567,0,0,1-.567-.567c0-3.035-1.556-5.6-3.4-5.6s-3.4,2.564-3.4,5.6a.567.567,0,0,1-1.135,0c0-3.776,1.991-6.734,4.531-6.734s4.531,2.958,4.531,6.734a.567.567,0,0,1-.567.567" transform="translate(-8.622 -6.737)" fill="#fff"/>
      <path id="Path_77445" data-name="Path 77445" d="M34.208,36.892a.567.567,0,0,1-.37-1l1.656-1.424-2.97-15.229a.567.567,0,0,1,1.114-.216l3.033,15.553a.567.567,0,0,1-.187.539l-1.907,1.64a.566.566,0,0,1-.37.136" transform="translate(-6.767 -5.506)" fill="#fff"/>
    </g>
  </g>
</svg>
