<svg id="icon-map-lifestyle" xmlns="http://www.w3.org/2000/svg" width="29.879" height="28.162" viewBox="0 0 29.879 28.162">
  <g id="Group_11911" data-name="Group 11911">
    <g id="Group_11908" data-name="Group 11908" transform="translate(0 0)">
      <path id="Path_77460" data-name="Path 77460" d="M33.014,11.472c-.5-.047-.942-.071-1.349-.071-3.042,0-4.542,1.151-6.57,3.569l-.732.873-.732-.873C21.6,12.552,20.1,11.4,17.065,11.4c-.41,0-.85.024-1.35.071-2.747.267-5.883,2.793-6.289,7.708v1.741c.46,5.639,5.483,11.909,14.937,18.642,9.456-6.733,14.482-13,14.942-18.642V19.18c-.41-4.915-3.545-7.441-6.291-7.708m4.722,7.774v1.608l0,.044c-.447,4.843-4.753,10.331-12.8,16.314l-.57.423-.57-.423c-8.041-5.976-12.348-11.465-12.8-16.313l0-.045V19.245l0-.044c.4-4.216,3.134-6,4.876-6.17a11.714,11.714,0,0,1,1.195-.062c2.415,0,3.505.788,5.369,3.008l1.93,2.3,1.934-2.3c1.863-2.22,2.954-3.008,5.368-3.008a11.963,11.963,0,0,1,1.2.062c1.74.171,4.477,1.955,4.868,6.171Z" transform="translate(-9.426 -11.401)" fill="#fff"/>
    </g>
  </g>
</svg>
