<svg id="Group_12087" data-name="Group 12087" xmlns="http://www.w3.org/2000/svg" xmlns:xlink="http://www.w3.org/1999/xlink" width="338.023" height="70.155" viewBox="0 0 338.023 70.155">
  <defs>
    <clipPath id="clip-path">
      <rect id="Rectangle_5737" data-name="Rectangle 5737" width="338.023" height="70.155" fill="#433433"/>
    </clipPath>
  </defs>
  <g id="Group_12084" data-name="Group 12084" clip-path="url(#clip-path)">
    <path id="Path_77592" data-name="Path 77592" d="M473.516,48.285v5.61q2.768-6.319,9.8-6.32a11.253,11.253,0,0,1,9.48,4.4q3.372,4.4,3.373,13.35T492.51,78.534q-3.657,4.261-10.971,4.26a11.869,11.869,0,0,1-5.112-.852,6.689,6.689,0,0,1-2.769-2.628V97.705h9.16v1.279H456.545V97.705h3.905V49.563h-3.763V48.285Zm8.236,4.864q-.71-2.518-2.768-2.52t-3.693,2.662a13.55,13.55,0,0,0-1.632,7.136V73.421a10.352,10.352,0,0,0,1.207,5.184,3.854,3.854,0,0,0,3.549,2.13q2.344,0,3.2-3.124t.852-10.935V62.983q0-7.312-.71-9.835" transform="translate(-276.652 -28.829)" fill="#433433"/>
    <path id="Path_77593" data-name="Path 77593" d="M580.64,65.4h2.06V59.929q0-6.745-.746-9.053a2.878,2.878,0,0,0-2.875-2.308,4.12,4.12,0,0,0-2.308.675,2.1,2.1,0,0,0-1.03,1.846,7.132,7.132,0,0,0,.426,2.379h1.776a10.112,10.112,0,0,1,.568,3.586,4.637,4.637,0,0,1-1.775,3.622,6.615,6.615,0,0,1-4.473,1.527q-6.108,0-6.107-5.894,0-8.734,14.84-8.734,8.45,0,11.681,2.876t3.231,10.544V75.409q0,3.693,2.06,3.692,2.413,0,2.84-7.313l1.065.071q-.285,6.25-2.343,8.591t-6.746,2.343q-8.521,0-9.8-5.254a7.644,7.644,0,0,1-2.769,3.977,9.463,9.463,0,0,1-5.4,1.278q-10.509,0-10.509-8.592,0-5.04,4.012-6.923T580.64,65.4m-2.449,13.491a1.47,1.47,0,0,0,1.491,1.065q1.1,0,2.06-1.811a10.827,10.827,0,0,0,.958-5.006v-6.6h-.5q-4.4,0-4.4,6.461v1.137a17.513,17.513,0,0,0,.391,4.757" transform="translate(-341.954 -28.828)" fill="#433433"/>
    <path id="Path_77594" data-name="Path 77594" d="M685.155,50.273q-2.628,0-4.615,3.408a15.786,15.786,0,0,0-1.988,8.095v19.03h5.042v1.277H661.439V80.807h3.905V49.563h-3.905V48.285h17.113V55.1a9.636,9.636,0,0,1,3.551-5.574,9.74,9.74,0,0,1,5.964-1.952,7.823,7.823,0,0,1,5.432,1.882,6.792,6.792,0,0,1,2.1,5.326,7.972,7.972,0,0,1-1.562,5.29,5.931,5.931,0,0,1-4.793,1.846,5.456,5.456,0,0,1-4.758-2.13q-1.527-2.131-.39-5.894h2.556q1.774-3.622-1.491-3.622" transform="translate(-400.812 -28.829)" fill="#433433"/>
    <path id="Path_77595" data-name="Path 77595" d="M771.62,53.255V51.978h3.266L766.863,35.5l-1.349.355V51.978h3.266v1.278H748.4V51.978h3.906V1.278h-4.189V0h17.4V34.438l1.136-.426,15.976-13.278h-6.674V19.456H789.94v1.278h-4.971l-8.449,7.172L788.8,51.978h2.556v1.278Z" transform="translate(-453.336 0)" fill="#433433"/>
    <path id="Path_77596" data-name="Path 77596" d="M42.6,12.975l.71,17.823H41.965q-3.125-9.443-5.538-12.888a7.98,7.98,0,0,0-6.959-3.444h-.852V61.189h6.036V62.68H8.734V61.189h6.035V14.466h-.923a8.056,8.056,0,0,0-7.03,3.586Q4.33,21.639,1.349,30.8H0L.71,12.975Z" transform="translate(0 -7.862)" fill="#433433"/>
    <path id="Path_77597" data-name="Path 77597" d="M118.394,3.966h17.113V29.954a11.8,11.8,0,0,1,3.479-5.254q2.343-1.987,7.1-1.988,11,0,11.006,11.858V55.943h3.977v1.278H140.974V55.943h2.911V32.866q0-4.26-.568-5.5a2.071,2.071,0,0,0-2.06-1.243q-2.272,0-4.012,2.982a14.14,14.14,0,0,0-1.739,7.243v19.6h3.053v1.278H118.394V55.943H122.3V5.244h-3.905Z" transform="translate(-71.743 -2.403)" fill="#433433"/>
    <path id="Path_77598" data-name="Path 77598" d="M234.882,82.037Q230.3,77.316,230.3,68.9t5.148-12.888q5.147-4.474,13.1-4.474,16.117,0,15.479,16.19H244.007V70.5q0,6.959,1.775,10.509t6.178,3.55q8.236,0,10.793-8.8l1.278.212a14.679,14.679,0,0,1-4.864,7.953q-3.515,2.841-10.544,2.84-9.16,0-13.74-4.722m9.2-15.728h7.314V62.83a29.979,29.979,0,0,0-.675-7.846,2.66,2.66,0,0,0-2.7-2.095,3.155,3.155,0,0,0-2.982,2.237q-.959,2.237-.959,7.7Z" transform="translate(-139.557 -31.232)" fill="#433433"/>
    <path id="Path_77599" data-name="Path 77599" d="M392.166,29.012a22.674,22.674,0,0,0-2.627-2.059,16.846,16.846,0,0,0-3.195-1.562q-1.954-.745-3.267-1.171t-5.5-1.562a25.973,25.973,0,0,1-7.065-2.947,5.776,5.776,0,0,1-2.876-5.183,6.686,6.686,0,0,1,2.415-5.4,10.257,10.257,0,0,1,6.781-2.023,11.12,11.12,0,0,1,7.755,3.412A6.491,6.491,0,0,0,387,9.056a5.908,5.908,0,0,0,1.119-1.573c-.81-.182-1.822-.435-3.056-.768a30.152,30.152,0,0,0-7.846-1.1q-7.812,0-12.32,4.545a14.883,14.883,0,0,0-4.509,10.864q0,7.74,4.4,11.432a20.843,20.843,0,0,0,4.651,2.982,57.262,57.262,0,0,0,7.882,2.663,28.173,28.173,0,0,1,8.379,3.586,6.8,6.8,0,0,1,2.947,5.929,6.6,6.6,0,0,1-2.734,5.788,10.677,10.677,0,0,1-6.284,1.917A14.406,14.406,0,0,1,370.05,51.3a7.438,7.438,0,0,0-3.389,1.84,6,6,0,0,0-1.186,1.794c.968.178,2.334.446,4.11.809a46.987,46.987,0,0,0,9.266,1.065q7.809,0,12.6-4.651t4.793-12.32a16.253,16.253,0,0,0-1.917-8.095,9.79,9.79,0,0,0-2.166-2.734" transform="translate(-218.385 -3.403)" fill="#433433"/>
    <path id="Path_77600" data-name="Path 77600" d="M435.693,12.121c-4.848-.441-7.421-3-7.868-7.832a.432.432,0,0,0-.4-.391h-.027a.431.431,0,0,0-.42.339l-.04.182c-.448,2.046-.872,3.979-2.345,5.441-1.42,1.411-3.289,1.832-5.269,2.278l-.316.071a.431.431,0,0,0,.056.85c4.824.439,7.386,3.009,7.833,7.858a.432.432,0,0,0,.4.391h.027a.431.431,0,0,0,.421-.34l.037-.172c.443-2.055.861-4,2.32-5.461s3.4-1.88,5.45-2.321l.192-.041a.431.431,0,0,0-.052-.851" transform="translate(-253.701 -2.362)" fill="#c19b46"/>
    <path id="Path_77601" data-name="Path 77601" d="M358.647,100.62c-4.825-.439-7.386-3.009-7.833-7.858a.431.431,0,0,0-.4-.391h-.027a.431.431,0,0,0-.421.34l-.037.173c-.443,2.055-.861,4-2.32,5.461s-3.4,1.88-5.45,2.321l-.192.041a.432.432,0,0,0,.052.851c4.848.441,7.422,3,7.868,7.832a.431.431,0,0,0,.4.391h.027a.431.431,0,0,0,.421-.339l.04-.181c.448-2.046.872-3.979,2.344-5.441,1.42-1.411,3.289-1.832,5.269-2.278l.317-.072a.431.431,0,0,0-.057-.85" transform="translate(-207.013 -55.974)" fill="#c19b46"/>
  </g>
</svg>
