<svg xmlns="http://www.w3.org/2000/svg" xmlns:xlink="http://www.w3.org/1999/xlink" width="254.256" height="121.403" viewBox="0 0 254.256 121.403">
  <defs>
    <filter id="Union_11" x="0" y="0" width="254.256" height="121.403" filterUnits="userSpaceOnUse">
      <feOffset dx="10" dy="10" input="SourceAlpha"/>
      <feGaussianBlur stdDeviation="10" result="blur"/>
      <feFlood flood-opacity="0.2"/>
      <feComposite operator="in" in2="blur"/>
      <feComposite in="SourceGraphic"/>
    </filter>
    <clipPath id="clip-path">
      <rect id="Rectangle_5737" data-name="Rectangle 5737" width="171.282" height="35.549" fill="#433433"/>
    </clipPath>
  </defs>
  <g id="Group_13864" data-name="Group 13864" transform="translate(-963.872 -4738)">
    <g id="The_Normand_Marker" data-name="The Normand Marker" transform="translate(983.872 4758)">
      <g id="Group_13313" data-name="Group 13313" transform="translate(0 0)" style="isolation: isolate">
        <g id="Group_13040" data-name="Group 13040" transform="translate(0 0)">
          <g transform="matrix(1, 0, 0, 1, -20, -20)" filter="url(#Union_11)">
            <path id="Union_11-2" data-name="Union 11" d="M90.468,52.915H0V0H194.256V52.915H103.789L97.128,61.4Z" transform="translate(20 20)" fill="#fff"/>
          </g>
        </g>
      </g>
    </g>
    <g id="Group_12088" data-name="Group 12088" transform="translate(995.31 4765.703)">
      <g id="Group_12084" data-name="Group 12084" clip-path="url(#clip-path)">
        <path id="Path_77592" data-name="Path 77592" d="M465.145,47.935v2.843a5,5,0,0,1,4.965-3.2,5.7,5.7,0,0,1,4.8,2.231q1.709,2.232,1.709,6.765t-1.853,6.692a6.924,6.924,0,0,1-5.559,2.159,6.014,6.014,0,0,1-2.59-.431,3.389,3.389,0,0,1-1.4-1.332v9.319h4.641v.648H456.545v-.648h1.979V48.582h-1.907v-.648Zm4.173,2.464q-.36-1.276-1.4-1.277a2.3,2.3,0,0,0-1.871,1.349,6.866,6.866,0,0,0-.827,3.616v6.584a5.245,5.245,0,0,0,.612,2.627,1.953,1.953,0,0,0,1.8,1.079q1.188,0,1.619-1.583a24.084,24.084,0,0,0,.432-5.541V55.383a22.136,22.136,0,0,0-.36-4.983" transform="translate(-365.391 -38.076)" fill="#433433"/>
        <path id="Path_77593" data-name="Path 77593" d="M572.584,56.605h1.044V53.835a17.85,17.85,0,0,0-.378-4.587,1.458,1.458,0,0,0-1.457-1.169,2.088,2.088,0,0,0-1.169.342,1.064,1.064,0,0,0-.522.935,3.614,3.614,0,0,0,.216,1.205h.9a5.125,5.125,0,0,1,.288,1.817,2.35,2.35,0,0,1-.9,1.835,3.352,3.352,0,0,1-2.267.774q-3.1,0-3.094-2.986,0-4.426,7.52-4.426,4.282,0,5.919,1.457t1.637,5.343v7.3q0,1.871,1.044,1.871,1.223,0,1.439-3.706l.54.036q-.144,3.167-1.187,4.353a4.341,4.341,0,0,1-3.418,1.187q-4.318,0-4.965-2.662a3.874,3.874,0,0,1-1.4,2.015,4.8,4.8,0,0,1-2.734.647q-5.325,0-5.325-4.354a3.523,3.523,0,0,1,2.033-3.508,15.46,15.46,0,0,1,6.242-.954m-1.241,6.836a.745.745,0,0,0,.755.54q.558,0,1.044-.918a5.487,5.487,0,0,0,.486-2.536V57.181h-.252q-2.231,0-2.231,3.274v.576a8.875,8.875,0,0,0,.2,2.41" transform="translate(-451.638 -38.075)" fill="#433433"/>
        <path id="Path_77594" data-name="Path 77594" d="M673.456,48.942a2.829,2.829,0,0,0-2.339,1.727,8,8,0,0,0-1.008,4.1v9.643h2.555v.647H661.439v-.647h1.979V48.582h-1.979v-.648h8.671v3.454a4.883,4.883,0,0,1,1.8-2.824,4.935,4.935,0,0,1,3.022-.989,3.964,3.964,0,0,1,2.753.953,3.442,3.442,0,0,1,1.062,2.7,4.04,4.04,0,0,1-.792,2.681,3.006,3.006,0,0,1-2.429.935,2.764,2.764,0,0,1-2.411-1.079,3.329,3.329,0,0,1-.2-2.986h1.3q.9-1.835-.756-1.835" transform="translate(-529.375 -38.076)" fill="#433433"/>
        <path id="Path_77595" data-name="Path 77595" d="M760.027,26.985v-.648h1.655l-4.066-8.348-.684.18v8.168h1.655v.648H748.261v-.648h1.979V.648h-2.123V0h8.815v17.45l.576-.216,8.1-6.728h-3.382V9.859h7.088v.648h-2.519l-4.281,3.634,6.225,12.2h1.3v.648Z" transform="translate(-598.747 0)" fill="#433433"/>
        <path id="Path_77596" data-name="Path 77596" d="M21.588,12.975l.36,9.031h-.683a27.98,27.98,0,0,0-2.806-6.53,4.043,4.043,0,0,0-3.526-1.745H14.5V37.406h3.058v.755H4.425v-.755H7.484V13.731H7.016a4.082,4.082,0,0,0-3.562,1.817,27.086,27.086,0,0,0-2.77,6.458H0l.36-9.031Z" transform="translate(0 -10.384)" fill="#433433"/>
        <path id="Path_77597" data-name="Path 77597" d="M118.394,3.966h8.671V17.135a5.979,5.979,0,0,1,1.763-2.662,5.46,5.46,0,0,1,3.6-1.007q5.576,0,5.577,6.009V30.3h2.015v.647H129.836V30.3h1.475V18.61a8.3,8.3,0,0,0-.288-2.788,1.049,1.049,0,0,0-1.044-.63q-1.151,0-2.033,1.511a7.165,7.165,0,0,0-.881,3.67V30.3h1.547v.647H118.394V30.3h1.979V4.614h-1.979Z" transform="translate(-94.755 -3.174)" fill="#433433"/>
        <path id="Path_77598" data-name="Path 77598" d="M232.623,66.993a9.16,9.16,0,0,1-2.32-6.656,8.182,8.182,0,0,1,2.608-6.53,9.755,9.755,0,0,1,6.638-2.267q8.167,0,7.844,8.2H237.247v1.4a12.315,12.315,0,0,0,.9,5.325,3.206,3.206,0,0,0,3.13,1.8q4.173,0,5.469-4.461l.647.108a7.438,7.438,0,0,1-2.465,4.03,8.378,8.378,0,0,1-5.343,1.439q-4.642,0-6.962-2.393m4.659-7.969h3.706V57.261a15.191,15.191,0,0,0-.342-3.976,1.348,1.348,0,0,0-1.367-1.061,1.6,1.6,0,0,0-1.511,1.133,10.95,10.95,0,0,0-.486,3.9Z" transform="translate(-184.32 -41.249)" fill="#433433"/>
        <path id="Path_77599" data-name="Path 77599" d="M376.491,17.47a11.485,11.485,0,0,0-1.331-1.043,8.536,8.536,0,0,0-1.619-.792q-.99-.377-1.655-.594T369.1,14.25a13.161,13.161,0,0,1-3.58-1.493,2.927,2.927,0,0,1-1.457-2.627A3.388,3.388,0,0,1,365.284,7.4a5.2,5.2,0,0,1,3.436-1.025A5.634,5.634,0,0,1,372.649,8.1a3.289,3.289,0,0,0,1.226-.741,2.993,2.993,0,0,0,.567-.8c-.411-.092-.923-.22-1.548-.389a15.279,15.279,0,0,0-3.976-.558,8.4,8.4,0,0,0-6.243,2.3,7.542,7.542,0,0,0-2.285,5.5q0,3.922,2.231,5.793a10.562,10.562,0,0,0,2.357,1.511,29.015,29.015,0,0,0,3.994,1.349,14.276,14.276,0,0,1,4.246,1.817,3.443,3.443,0,0,1,1.493,3,3.344,3.344,0,0,1-1.385,2.933,5.41,5.41,0,0,1-3.184.971,7.3,7.3,0,0,1-4.856-2.035,3.769,3.769,0,0,0-1.717.932,3.042,3.042,0,0,0-.6.909c.49.09,1.183.226,2.083.41a23.809,23.809,0,0,0,4.7.539,8.781,8.781,0,0,0,6.386-2.357,8.3,8.3,0,0,0,2.429-6.243,8.236,8.236,0,0,0-.972-4.1,4.96,4.96,0,0,0-1.1-1.385" transform="translate(-288.434 -4.494)" fill="#433433"/>
        <path id="Path_77600" data-name="Path 77600" d="M427.3,8.065A3.94,3.94,0,0,1,423.308,4.1a.219.219,0,0,0-.2-.2h-.014a.219.219,0,0,0-.213.172l-.02.092a5.172,5.172,0,0,1-1.188,2.757A5.13,5.13,0,0,1,419,8.073l-.16.036a.219.219,0,0,0,.029.431,3.937,3.937,0,0,1,3.969,3.982.219.219,0,0,0,.2.2h.014a.219.219,0,0,0,.213-.173l.019-.087a5.208,5.208,0,0,1,1.176-2.767,5.158,5.158,0,0,1,2.762-1.176l.1-.021a.219.219,0,0,0-.026-.431" transform="translate(-335.077 -3.12)" fill="#c19b46"/>
        <path id="Path_77601" data-name="Path 77601" d="M350.249,96.551a3.936,3.936,0,0,1-3.969-3.982.219.219,0,0,0-.2-.2h-.014a.218.218,0,0,0-.213.172l-.019.087a4.017,4.017,0,0,1-3.937,3.943l-.1.021a.219.219,0,0,0,.026.431,3.94,3.94,0,0,1,3.987,3.968.219.219,0,0,0,.2.2h.014a.219.219,0,0,0,.213-.172l.02-.092a4,4,0,0,1,3.858-3.911l.161-.036a.219.219,0,0,0-.029-.431" transform="translate(-273.414 -73.928)" fill="#c19b46"/>
      </g>
    </g>
  </g>
</svg>
