<svg xmlns="http://www.w3.org/2000/svg" width="41.552" height="41.552" viewBox="0 0 41.552 41.552">
  <ellipse id="Ellipse_304" data-name="Ellipse 304" cx="19.776" cy="19.776" rx="19.776" ry="19.776" transform="translate(1 1)" fill="#fff" stroke="#c19b46" stroke-width="2"/>
  <g id="Group_9851" data-name="Group 9851" transform="translate(14.316 9.701)">
    <path id="Path_51143" data-name="Path 51143" d="M199.39,687.483c-.734.427-1.368.765-1.964,1.161a.9.9,0,0,0-.25.587c-.13,1-.227,2-.346,3a.946.946,0,0,1-1.006.935.928.928,0,0,1-.837-1.09c.124-1.422.273-2.841.438-4.258a.751.751,0,0,1,.308-.48c1.33-.851,2.673-1.681,4.015-2.51a.93.93,0,0,1,.415-.165,2.753,2.753,0,0,1,2.579,2.476c0,1.713-.013,3.427.015,5.14a2.446,2.446,0,0,0,.311.8.216.216,0,0,0,.079.081c2.711,1.94,3.4,5.009,4.392,7.9a1.1,1.1,0,0,1-.693,1.387,1.116,1.116,0,0,1-1.475-.7c-.618-1.554-1.2-3.122-1.824-4.673a2.711,2.711,0,0,0-.582-.885c-1.051-1.048-2.146-2.054-3.188-3.111a1.425,1.425,0,0,1-.371-.878c-.039-1.332-.017-2.665-.017-4Z" transform="translate(-194.275 -680.161)" fill="#c19b46"/>
    <path id="Path_51144" data-name="Path 51144" d="M198.195,704.521c.61.573,1.111,1.013,1.567,1.5a.654.654,0,0,1,.087.57,12.062,12.062,0,0,1-1.939,3.4c-.85,1-1.614,2.07-2.419,3.108a1.169,1.169,0,0,1-1.725.385,1.189,1.189,0,0,1-.11-1.765c.3-.416.609-.828.911-1.243A22.548,22.548,0,0,0,198.195,704.521Z" transform="translate(-193.323 -691.559)" fill="#c19b46"/>
    <path id="Path_51145" data-name="Path 51145" d="M207.023,674.09a2.078,2.078,0,1,1-2.109,2.033A2.068,2.068,0,0,1,207.023,674.09Z" transform="translate(-199.977 -674.09)" fill="#c19b46"/>
    <path id="Path_51146" data-name="Path 51146" d="M214.466,695.281c.956.829,1.929,1.639,2.861,2.5a.784.784,0,0,1,.009,1.139.829.829,0,0,1-1.174.211c-.593-.41-1.145-.882-1.7-1.35a.607.607,0,0,1-.126-.41c-.012-.665-.006-1.33-.006-2Z" transform="translate(-205.384 -686.255)" fill="#c19b46"/>
  </g>
</svg>
